<svg width="128" height="128" viewBox="0 0 128 128" xmlns="http://www.w3.org/2000/svg">

  <!-- background -->
  <rect x="0.5" y="0.5" width="127" height="127" rx="20" fill="#0B1220"/>

  <!-- panel -->
  <rect x="8" y="8" width="112" height="112" rx="14" fill="#F8FAFC"/>

  <!-- M -->
  <path d="M20 68V20H30L42 44L54 20H64V68H54V36L42 56L30 36V68Z"
        fill="#111827"/>

  <!-- ↓ -->
  <path d="M84 20H92V56H104L88 76L72 56H84Z"
        fill="#A855F7"/>

  <!-- ===== diagram (線を先に描く) ===== -->

  <!-- 横線（ちょい長めに） -->
  <path d="M52 89H76" stroke="#2563EB" stroke-width="4"
        stroke-linecap="round"/>

  <!-- 斜め線（箱の中まで潜らせる） -->
  <path d="M42 96L64 106" stroke="#2563EB" stroke-width="4"
        stroke-linecap="round"/>
  <path d="M86 96L64 106" stroke="#2563EB" stroke-width="4"
        stroke-linecap="round"/>

  <!-- ===== 箱（後で描く＝自然に接続） ===== -->
  <rect x="30" y="82" width="24" height="14" rx="3" fill="#2563EB"/>
  <rect x="74" y="82" width="24" height="14" rx="3" fill="#2563EB"/>
  <rect x="52" y="100" width="24" height="12" rx="3" fill="#2563EB"/>

</svg>